<svg width="256" height="45" viewBox="0 0 256 45" fill="none" xmlns="http://www.w3.org/2000/svg">
<g clip-path="url(#clip0_1338_191)">
<path d="M24.73 34.2105C22.96 35.2205 20.69 35.7305 17.91 35.7305H8.51V9.77047L17.62 9.81047C20.23 9.81047 22.54 10.2805 24.53 11.2305C24.99 11.4505 25.42 11.7105 25.83 11.9805V2.60047C23.31 1.74047 20.56 1.30047 17.65 1.30047L0 1.23047V44.2305H17.91C20.89 44.2305 23.59 43.7905 26 42.9305V33.3405C25.6 33.6605 25.18 33.9505 24.73 34.2005V34.2105Z" fill="#5072FF"/>
<path d="M22.5002 15.7709C21.7802 15.1009 20.9902 14.6309 20.1202 14.3609C19.2502 14.0909 17.9002 13.9609 16.0602 13.9609H15.0902C14.7702 13.9609 14.4602 13.9709 14.1602 14.0009V31.4609C14.5402 31.4609 14.9102 31.4709 15.2902 31.5009C15.6702 31.5309 16.0502 31.5409 16.4202 31.5409C18.1302 31.5409 19.4002 31.3909 20.2302 31.1009C21.0602 30.8109 21.8102 30.3209 22.4902 29.6309C23.1702 28.9409 23.7102 27.9909 24.1202 26.7609C24.5302 25.5309 24.7402 24.0609 24.7402 22.3709C24.7402 20.8809 24.5502 19.5809 24.1602 18.4709C23.7702 17.3609 23.2202 16.4709 22.5002 15.8009V15.7709Z" fill="#5072FF"/>
<path d="M35.2002 35.7305C33.5502 38.1805 31.4602 40.1505 28.9502 41.5905C28.0302 42.1205 27.0302 42.5605 25.9902 42.9305V44.2305H36.0602V35.7305H35.1902H35.2002Z" fill="#5072FF"/>
<path d="M26.0001 33.3505C27.1801 32.4005 28.1701 31.1705 28.9401 29.6605C29.9801 27.6405 30.5001 25.2105 30.5001 22.3705C30.5001 19.8605 30.0001 17.6205 29.0101 15.6305C28.2501 14.1105 27.1801 12.8905 25.8301 11.9805L26.0101 33.3405L26.0001 33.3505Z" fill="#5072FF"/>
<path d="M36.07 20.1812C36.07 20.0112 36.07 19.7512 36.05 19.3912C36.03 18.9612 36.01 18.5012 35.98 18.0112L35.95 17.5312H34.5V35.7413H35.2C35.5 35.2913 36.07 31.1712 36.07 28.9012V20.1812Z" fill="#5072FF"/>
<path d="M49.58 17.4891L49.72 20.2091C50.34 19.1391 51.15 18.3491 52.15 17.8291C53.15 17.3091 54.31 17.0491 55.62 17.0491C56.93 17.0491 58.14 17.3591 59.09 17.9691C59.68 16.7691 60.39 15.6291 61.24 14.5991C62.24 13.3791 63.41 12.3591 64.68 11.5191C64.4 11.2991 64.11 11.0891 63.8 10.8891C61.44 9.32906 58.69 8.53906 55.62 8.53906C54.27 8.53906 52.98 8.68906 51.74 8.97906H48.5V17.4791H49.58V17.4891Z" fill="#5072FF"/>
<path d="M57.8003 35.7306H56.2403V23.9906C56.2403 23.0306 55.9803 22.2706 55.4503 21.7206C54.9203 21.1706 54.2403 20.8906 53.3903 20.8906C52.2903 20.8906 51.4403 21.2506 50.8303 21.9606C50.2203 22.6706 49.9203 23.6706 49.9203 24.9306V35.7206H48.3203V44.2206H59.8603C58.8803 42.5206 58.1203 40.3706 57.9203 37.6606L57.7803 35.7206L57.8003 35.7306Z" fill="#5072FF"/>
<path d="M44.5699 35.7305V20.1705C44.5699 19.9405 44.5699 19.5705 44.5399 19.0805C44.5099 18.5905 44.4999 18.0505 44.4599 17.4805H48.4999V8.98047H35.4199L35.4699 9.73047H39.9999V14.3905H37.6799C38.0299 15.4005 38.3099 16.4505 38.5199 17.5205H39.8199V35.7305H36.0599V44.2305H48.3199V35.7305H44.5599H44.5699Z" fill="#5072FF"/>
<path d="M35.9498 17.5206H38.5298C38.3198 16.4506 38.0398 15.4006 37.6898 14.3906H35.7598L35.9498 17.5206Z" fill="#5072FF"/>
<path d="M72.4604 38.9189C73.0004 39.3589 73.7504 39.5789 74.7004 39.5789C75.6504 39.5789 76.4704 39.3289 77.0604 38.8289C77.6504 38.3289 77.9904 37.6189 78.1104 36.6889C78.2304 35.7589 78.2804 34.8289 78.2804 33.8989V32.8789C77.6804 33.6789 76.9904 34.2889 76.1904 34.7289C75.3904 35.1689 74.4404 35.3789 73.3404 35.3789C72.1704 35.3789 71.1304 35.1489 70.1904 34.7089V37.0689H71.5504C71.6204 37.8689 71.9304 38.4889 72.4704 38.9189H72.4604Z" fill="#5072FF"/>
<path d="M74.6703 20.9983C73.5703 20.9983 72.6903 21.4583 72.0203 22.3783C71.3503 23.2983 71.0303 24.6383 71.0303 26.4083C71.0303 28.1783 71.3403 29.4783 71.9603 30.3783C72.5803 31.2783 73.4603 31.7283 74.6003 31.7283C75.8203 31.7283 76.7503 31.2783 77.3903 30.3783C78.0303 29.4783 78.3503 28.1883 78.3503 26.5083C78.3503 24.6683 78.0303 23.2883 77.4003 22.3683C76.7703 21.4483 75.8603 20.9883 74.6803 20.9883L74.6703 20.9983Z" fill="#5072FF"/>
<path d="M68.9702 17.0192C69.1702 17.4892 69.3402 17.9992 69.4802 18.5292C70.6102 17.8092 71.9402 17.4492 73.4702 17.4492C74.5902 17.4492 75.5702 17.6492 76.4102 18.0592C77.2502 18.4692 77.9602 19.1192 78.5502 20.0392L78.7302 17.6292H79.8102V9.12922H75.9202C75.1302 9.00922 74.3102 8.94922 73.4802 8.94922C72.6502 8.94922 71.8202 9.00922 71.0202 9.12922H70.8302V9.15922C68.6002 9.50922 66.5302 10.3192 64.7002 11.5292C66.6202 13.0092 68.0902 14.8892 68.9802 17.0292L68.9702 17.0192Z" fill="#5072FF"/>
<path d="M57.31 28.5705H57.3L57.81 35.7405H61.69V25.4405C61.69 22.9105 61.5 21.1905 61.13 20.2905C60.76 19.3905 60.09 18.6205 59.14 18.0005C59.14 18.0005 59.12 18.0005 59.11 17.9805C57.87 20.5105 57.21 23.3805 57.21 26.4605C57.21 27.1805 57.25 27.8805 57.32 28.5705H57.31Z" fill="#5072FF"/>
<path d="M66.4199 37.0686C66.5599 39.0386 67.2699 40.4986 68.5399 41.4586C68.9899 41.7986 69.5399 42.0786 70.1799 42.2986V37.0586H66.4199V37.0686Z" fill="#5072FF"/>
<path d="M69.4802 18.5312C68.8702 18.9212 68.3102 19.4112 67.8102 20.0112C66.4002 21.7212 65.7002 23.8612 65.7002 26.4513C65.7002 29.0413 66.4002 31.1013 67.8002 32.8113C68.4902 33.6513 69.2802 34.2812 70.1802 34.7112V25.4312C70.1802 22.4712 69.9602 20.3012 69.4802 18.5312Z" fill="#5072FF"/>
<path d="M104.67 40.1187C103.46 38.7287 102.56 37.1987 101.97 35.5687C101.1 35.9087 100.14 36.0887 99.0697 36.0887C97.7697 36.0887 96.6797 35.8388 95.7997 35.3288C94.9197 34.8188 94.1997 34.1187 93.6397 33.2188C93.6397 33.4888 93.6297 33.8288 93.5997 34.2388C93.5697 34.6488 93.5297 35.1487 93.4697 35.7287H92.0097C91.9997 39.3787 90.9997 42.1587 89.6797 44.2287H95.6297C96.7297 44.4587 97.8797 44.5788 99.0897 44.5788C102.11 44.5788 104.92 43.8088 107.32 42.3787C106.21 41.6587 105.35 40.8587 104.7 40.1087L104.67 40.1187Z" fill="#5072FF"/>
<path d="M93.63 9.76953V19.7495C94.17 19.0095 94.87 18.4195 95.72 17.9695C96.57 17.5195 97.61 17.2895 98.81 17.2895C100.27 17.2895 101.54 17.6295 102.64 18.2995C103.49 15.6895 105.06 13.4295 107.29 11.7395C107.42 11.6395 107.56 11.5595 107.69 11.4595C106.02 10.3195 104.14 9.51953 102.12 9.10953V1.26953H79.79V9.12953H93.62V9.77953L93.63 9.76953Z" fill="#5072FF"/>
<path d="M94.4197 22.2911C93.7597 23.2411 93.4297 24.6511 93.4297 26.5311C93.4297 28.4111 93.7897 29.9211 94.5197 30.9911C95.2497 32.0611 96.2697 32.6111 97.5997 32.6111C98.7997 32.6111 99.7097 32.1311 100.33 31.1711C100.95 30.2111 101.27 28.8411 101.27 27.0611C101.27 25.0011 100.93 23.4511 100.26 22.4211C99.5897 21.3911 98.5997 20.8711 97.3197 20.8711C96.0397 20.8711 95.0897 21.3411 94.4297 22.2911H94.4197Z" fill="#5072FF"/>
<path d="M81.2296 41.0806C82.7396 39.8606 83.4896 38.0606 83.4896 35.6706V21.8406C83.4896 21.6306 83.4896 21.3906 83.5096 21.1206C83.5296 20.8506 83.5296 20.5606 83.5296 20.2606C83.5496 19.9006 83.5796 19.5106 83.5996 19.0906C83.6196 18.6706 83.6696 18.1906 83.7396 17.6406H79.8096V41.9606C80.3396 41.7206 80.8196 41.4306 81.2396 41.0906L81.2296 41.0806Z" fill="#5072FF"/>
<path d="M91.99 21.8295C91.99 21.7295 91.99 21.6095 91.99 21.4795C92 21.1795 92.01 20.8695 92.01 20.5395C92.03 20.2295 93.62 9.76953 93.62 9.76953H88.29V35.7295H91.98V21.8295H91.99Z" fill="#5072FF"/>
<path d="M123.84 35.7317H121.39L121.28 35.0817C121.24 34.8817 121.23 34.7017 121.23 34.5417C121.21 34.3817 121.19 34.1917 121.19 33.9817V33.2617C120.57 34.1917 119.83 34.9017 118.97 35.4117C118.11 35.9217 117.03 36.1717 115.73 36.1717C114.78 36.1717 113.97 36.0417 113.25 35.8317C112.69 36.9617 112.03 38.0117 111.23 38.9917C110.1 40.3717 108.77 41.5017 107.29 42.3917C109.25 43.6617 111.98 44.6817 115.73 44.6817C117.07 44.6817 118.35 44.5317 119.56 44.2417H133.64C131.18 43.7817 129.06 42.7917 127.35 41.2817C126.07 40.1517 124.65 38.3617 123.84 35.7417V35.7317Z" fill="#5072FF"/>
<path d="M115.1 29.0284C115.05 29.5984 114.98 30.1484 114.89 30.6884C114.99 31.1784 115.22 31.6084 115.58 31.9784C116.08 32.4684 116.69 32.7184 117.42 32.7184C118.46 32.7184 119.27 32.2984 119.85 31.4484C120.18 30.9584 120.41 30.3684 120.55 29.7084H119.7V27.1484C118.09 27.1484 116.88 27.4284 116.08 27.9684C115.63 28.2684 115.32 28.6284 115.11 29.0284H115.1Z" fill="#5072FF"/>
<path d="M119.69 20.6106C119.27 20.3006 118.72 20.1406 118.03 20.1406C117.39 20.1406 116.83 20.3506 116.36 20.7806C115.89 21.2106 115.66 21.8706 115.66 22.7806H114.82C114.93 23.3606 115.01 23.9606 115.07 24.5706C116.36 24.2406 117.9 24.0706 119.69 24.0706V20.6206V20.6106Z" fill="#5072FF"/>
<path d="M111.19 14.6917C112.02 15.7217 112.7 16.8417 113.27 18.0217C114.5 17.3617 116.05 17.0117 117.96 17.0117C118.57 17.0117 119.14 17.0517 119.69 17.1217V9.16172H123.18C121.56 8.73172 119.82 8.51172 117.96 8.51172C113.91 8.51172 110.47 9.51172 107.7 11.4717C108.99 12.3517 110.17 13.4217 111.18 14.6917H111.19Z" fill="#5072FF"/>
<path d="M114.83 30.1312C114.83 30.3312 114.85 30.5112 114.89 30.6912C114.98 30.1512 115.05 29.5913 115.1 29.0312C114.93 29.3613 114.84 29.7312 114.84 30.1312H114.83Z" fill="#5072FF"/>
<path d="M101.89 26.1186C101.4 27.6186 101.14 29.2286 101.14 30.9186C101.14 32.6086 101.42 34.0886 101.96 35.5686C103 35.1586 103.9 34.5086 104.65 33.5986C106.01 31.9386 106.69 29.7086 106.69 26.9086C106.69 24.1086 105.97 21.7886 104.54 19.9886C103.98 19.2886 103.35 18.7286 102.65 18.3086C102.21 19.6786 101.95 21.1386 101.93 22.6686L101.89 26.1186Z" fill="#5072FF"/>
<path d="M112.45 18.5195C111.13 19.5195 110.46 20.9395 110.44 22.7795H114.82C114.51 21.0895 113.99 19.4995 113.27 18.0195C112.99 18.1695 112.7 18.3295 112.45 18.5095V18.5195Z" fill="#5072FF"/>
<path d="M114.83 30.1303C114.83 29.7303 114.93 29.3603 115.09 29.0303C115.15 28.3403 115.19 27.6403 115.19 26.9103C115.19 26.1103 115.14 25.3303 115.06 24.5703C113.86 24.8703 112.87 25.3103 112.09 25.8803C110.46 27.0903 109.64 28.7703 109.64 30.9203C109.64 32.2303 110.12 33.4403 111.07 34.5303C111.6 35.1403 112.34 35.5603 113.24 35.8303C114.02 34.2603 114.57 32.5403 114.88 30.6803C114.84 30.5003 114.82 30.3203 114.82 30.1203L114.83 30.1303Z" fill="#5072FF"/>
<path d="M145.49 9.16V0L123.19 8.15V9.16C125.12 9.67 126.88 10.46 128.45 11.56C129.39 12.22 130.62 13.28 131.7 14.84V14.1L136.99 12.17V17.67H141.31V21.2H136.99V29.44C136.99 30.61 137.17 31.35 137.54 31.65C137.91 31.95 138.54 32.1 139.43 32.1H139.87L140.26 32.08C140.39 32.08 140.53 32.07 140.68 32.04L141.19 31.99V35.49C140.33 35.71 139.54 35.86 138.82 35.94C138.1 36.02 137.51 36.05 137.06 36.05C136.24 36.05 135.53 35.96 134.9 35.81L136.58 44.24H133.64C134.71 44.44 135.85 44.56 137.06 44.56C137.81 44.56 138.67 44.51 139.7 44.4C140.85 44.28 142.07 44.05 143.33 43.72L146.15 42.99V9.16H145.49Z" fill="#5072FF"/>
<path d="M119.81 24.0594H120.71V23.3394C120.71 22.2894 120.49 21.4894 120.05 20.9494C119.95 20.8194 119.82 20.7094 119.69 20.6094V24.0594C119.69 24.0594 119.77 24.0594 119.81 24.0594Z" fill="#5072FF"/>
<path d="M120.54 29.6989C120.64 29.2089 120.71 28.6889 120.71 28.0989V27.1689L119.78 27.1289C119.78 27.1289 119.73 27.1289 119.7 27.1289V29.6889H120.55L120.54 29.6989Z" fill="#5072FF"/>
<path d="M120.05 20.9489C120.49 21.4889 120.71 22.2889 120.71 23.3389V24.0589H119.81C119.81 24.0589 119.73 24.0589 119.69 24.0589V27.1389C119.69 27.1389 119.74 27.1389 119.77 27.1389L120.7 27.1789V28.1089C120.7 28.6889 120.64 29.2189 120.53 29.7089H123.18V31.3089C123.18 33.0089 123.44 34.4689 123.83 35.7389H126.2C125.92 34.3289 125.78 32.5189 125.78 30.3089L125.73 23.6489C125.73 21.2489 125.01 19.5389 123.57 18.5289C122.51 17.7889 121.21 17.3189 119.69 17.1289V20.6189C119.82 20.7189 119.94 20.8289 120.05 20.9589V20.9489Z" fill="#5072FF"/>
<path d="M128.19 17.6603V21.1903H131.69V31.3003C131.69 32.9403 132.12 34.1403 132.98 34.9003C133.46 35.3203 134.11 35.6203 134.89 35.8003L134.54 34.0503C134.44 33.5703 134.28 32.4403 134.28 30.2203L134.23 23.6303C134.23 19.6903 133.08 16.8403 131.69 14.8203V17.6503H128.19V17.6603Z" fill="#5072FF"/>
<path d="M160.24 20.3219H166.21C167.17 17.4419 168.67 15.3419 170.01 13.9219H160.23V20.3219H160.24Z" fill="#5072FF"/>
<path d="M165.3 24.6405H160.23V35.7305H154.64V9.74047H171.43V12.5905C173.36 10.9805 176.14 9.43047 179.93 8.86047V1.23047H146.14V9.16047H149.81V29.7005H149.69V42.0605L146.15 42.9805V44.2305H168.75V38.0605C166.92 35.6105 165.21 31.9505 165.21 26.7905C165.21 26.0405 165.25 25.3205 165.32 24.6305L165.3 24.6405Z" fill="#5072FF"/>
<path d="M183.11 17.1194C185.01 17.1194 186.64 17.4894 188.01 18.2194C188.01 18.1494 188.01 18.0894 188 18.0094L187.45 9.05938C186.14 8.77938 184.7 8.60938 183.11 8.60938C181.98 8.60938 180.93 8.69938 179.94 8.84938V17.5294C180.9 17.2594 181.95 17.1194 183.11 17.1194Z" fill="#5072FF"/>
<path d="M188.09 35.1584C186.66 35.9684 184.96 36.3884 182.99 36.3884C180.17 36.3884 177.91 35.5184 176.23 33.7784C176.04 33.5784 175.86 33.3684 175.68 33.1484H168.74V38.0784C169.2 38.6884 169.66 39.2284 170.11 39.6884C173.4 43.0984 177.85 44.8984 182.98 44.8984C184.9 44.8984 186.61 44.6484 188.14 44.2484H188.09V35.1684V35.1584Z" fill="#5072FF"/>
<path d="M180.17 31.2897C180.84 32.2197 181.84 32.6797 183.18 32.6797C184.52 32.6797 185.55 32.1797 186.17 31.1697C186.79 30.1597 187.1 28.5997 187.1 26.4897C187.1 24.5097 186.77 23.0497 186.11 22.0997C185.45 21.1497 184.45 20.6797 183.11 20.6797C181.77 20.6797 180.73 21.1997 180.1 22.2397C179.52 23.2197 179.22 24.6497 179.18 26.4897V27.1297C179.21 28.9997 179.54 30.3897 180.17 31.2697V31.2897Z" fill="#5072FF"/>
<path d="M179.18 27.1515C179.18 27.1515 179.17 26.7215 179.17 26.8415C179.17 26.9515 179.18 27.0415 179.18 27.1515Z" fill="#5072FF"/>
<path d="M170.68 24.6403V20.3203H166.21C165.78 21.6003 165.46 23.0403 165.3 24.6403H170.67H170.68Z" fill="#5072FF"/>
<path d="M177.58 21.0912H179.94V17.5312C178.46 17.9512 177.21 18.6912 176.2 19.7512C174.54 21.5112 173.7 23.8612 173.7 26.8012C173.7 29.3712 174.36 31.4812 175.68 33.1412H177.58V21.0812V21.0912Z" fill="#5072FF"/>
<path d="M211.85 35.7284H208.26V29.6984H207.7V22.0284C207.63 21.9284 207.56 21.8184 207.47 21.7284C206.94 21.1784 206.26 20.8984 205.41 20.8984C204.31 20.8984 203.46 21.2584 202.85 21.9684C202.24 22.6784 201.94 23.6784 201.94 24.9384V35.7284H198.89C198 37.4084 196.96 38.7184 195.99 39.7084C194.35 41.3784 191.79 43.2684 188.13 44.2384H221.64C219.18 43.7784 217.06 42.7884 215.35 41.2784C214.07 40.1484 212.65 38.3584 211.84 35.7384L211.85 35.7284Z" fill="#5072FF"/>
<path d="M198.83 17.4908H201.6L201.74 20.2108C202.36 19.1408 203.17 18.3508 204.17 17.8308C205.17 17.3108 206.33 17.0508 207.64 17.0508C207.66 17.0508 207.68 17.0508 207.7 17.0508V9.16078H211.2V8.94078C210.07 8.68078 208.88 8.55078 207.65 8.55078C206.3 8.55078 205.01 8.70078 203.77 8.99078H187.45V9.07078C191.57 9.95078 194.36 11.9908 196.1 13.7708C197.01 14.7008 197.99 15.9408 198.84 17.5008L198.83 17.4908Z" fill="#5072FF"/>
<path d="M188.09 20.1788V35.1588C188.77 34.7788 189.39 34.3088 189.94 33.7488C191.67 31.9888 192.53 29.6288 192.53 26.6688C192.53 23.7088 191.69 21.4287 190.01 19.7087C189.42 19.1087 188.75 18.6087 188.01 18.2188C188.03 18.6287 188.06 19.0288 188.07 19.3988C188.08 19.7488 188.09 20.0188 188.09 20.1888V20.1788Z" fill="#5072FF"/>
<path d="M211.2 29.6992H208.26V35.7292H211.85C211.46 34.4592 211.2 32.9992 211.2 31.2992V29.6992Z" fill="#5072FF"/>
<path d="M198.83 17.4883H196.49C196.53 18.0583 196.55 18.5983 196.57 19.0883C196.59 19.5783 196.6 19.9483 196.6 20.1783V35.7383H198.91C200.13 33.4383 201.04 30.4583 201.04 26.6683C201.04 22.8783 200.08 19.7883 198.83 17.4883Z" fill="#5072FF"/>
<path d="M223.84 35.9781C223.21 35.9081 222.68 35.7681 222.2 35.5781V44.2281H221.65C222.72 44.4281 223.86 44.5481 225.07 44.5481C225.82 44.5481 226.68 44.4981 227.71 44.3881C228.86 44.2681 230.08 44.0381 231.34 43.7081L231.89 43.5681C230.58 43.0581 229.35 42.3981 228.24 41.5681C226.24 40.0881 224.77 38.1681 223.84 35.9781Z" fill="#5072FF"/>
<path d="M222.2 35.5914C221.74 35.4114 221.32 35.2014 221 34.9114C220.14 34.1514 219.71 32.9514 219.71 31.3114V21.2014H216.21V17.6714H219.71V14.6914C218.71 13.2214 217.4 11.9314 215.84 10.9014C214.43 9.97141 212.88 9.32141 211.21 8.94141V9.16141H207.71V17.0514C209.07 17.0514 210.22 17.3714 211.15 17.9914C212.1 18.6214 212.76 19.3814 213.14 20.2814C213.52 21.1814 213.7 22.9014 213.7 25.4314V35.7314H211.86C212.67 38.3514 214.09 40.1414 215.37 41.2714C217.08 42.7814 219.19 43.7714 221.66 44.2314H222.21V35.5814L222.2 35.5914Z" fill="#5072FF"/>
<path d="M207.7 22.0312V29.7013H208.26V23.9912C208.26 23.1912 208.07 22.5412 207.7 22.0312Z" fill="#5072FF"/>
<path d="M255.14 26.2811L255 22.1911C254.85 17.9611 252.96 14.2611 249.67 11.7711C246.91 9.68109 243.52 8.62109 239.6 8.62109C237.88 8.62109 236.27 8.81109 234.75 9.16109H237.84V17.2311C238.4 17.1611 238.98 17.1211 239.6 17.1211C241.64 17.1211 243.29 17.5911 244.54 18.5411C245.79 19.4911 246.45 20.8011 246.51 22.4811H241.64C241.6 21.8111 241.38 21.2811 240.97 20.9011C240.56 20.5211 239.92 20.3211 239.05 20.3211C238.59 20.3211 238.19 20.3911 237.83 20.5211V23.6811C238.63 23.9511 239.93 24.3311 241.75 24.8011C243.67 25.3011 245.05 25.9711 245.89 26.7911C246.73 27.6111 247.15 28.6811 247.15 30.0111C247.15 31.7911 246.4 33.2811 244.89 34.4811C243.38 35.6811 241.35 36.2811 238.78 36.2811C238.4 36.2811 238.06 36.2411 237.7 36.2211V42.0711L231.88 43.5811C233.95 44.3811 236.25 44.7911 238.77 44.7911C243.3 44.7911 247.14 43.5611 250.18 41.1311C253.7 38.3211 255.64 34.3711 255.64 30.0111C255.64 28.7211 255.47 27.4711 255.13 26.2811H255.14Z" fill="#5072FF"/>
<path d="M241.29 32.3491C241.81 31.9491 242.06 31.4291 242.06 30.7891C242.06 30.3691 241.9 29.9991 241.59 29.6691C241.28 29.3391 240.55 29.0291 239.43 28.7091L237.83 28.2891V29.6891H237.71V32.6591C238.14 32.8491 238.65 32.9491 239.26 32.9491C240.1 32.9491 240.78 32.7491 241.3 32.3391L241.29 32.3491Z" fill="#5072FF"/>
<path d="M222.61 21.9689L222.72 30.5789C222.74 32.5089 223.14 34.3189 223.84 35.9789C224.22 36.0189 224.63 36.0489 225.07 36.0489C225.51 36.0489 226.1 36.0089 226.83 35.9389C227.56 35.8689 228.35 35.7089 229.2 35.4889V31.9889L228.69 32.0389C228.54 32.0589 228.4 32.0789 228.27 32.0789L227.88 32.0989H227.44C226.55 32.0989 225.92 31.9489 225.55 31.6489C225.18 31.3489 225 30.6189 225 29.4389V21.1989H229.32V17.6689H225V15.8789C223.91 17.6889 223.27 19.7489 223.15 21.9789H222.61V21.9689Z" fill="#5072FF"/>
<path d="M237.06 32.2905C236.54 31.8405 236.26 31.2405 236.23 30.4805H231.22C231.24 32.3105 231.94 33.7305 233.31 34.7505C234.45 35.6005 235.93 36.0705 237.7 36.2205V32.6705C237.46 32.5705 237.25 32.4505 237.06 32.2905Z" fill="#5072FF"/>
<path d="M231.62 22.8083C231.62 24.1083 231.98 25.1583 232.7 25.9683C233.42 26.7783 234.67 27.4283 236.44 27.9283L237.82 28.2983V23.6783C237.82 23.6783 237.72 23.6483 237.68 23.6383C236.89 23.3583 236.5 22.8583 236.5 22.1383C236.5 21.5883 236.74 21.1483 237.21 20.8183C237.39 20.6983 237.59 20.5983 237.81 20.5283V17.2383C236.25 17.4383 234.92 17.8983 233.83 18.6383C232.35 19.6483 231.61 21.0383 231.61 22.8183L231.62 22.8083Z" fill="#5072FF"/>
</g>
<defs>
<clipPath id="clip0_1338_191">
<rect width="255.65" height="44.89" fill="white"/>
</clipPath>
</defs>
</svg>
