<svg width="124" height="64" viewBox="0 0 124 64" fill="none" xmlns="http://www.w3.org/2000/svg">
<path d="M12.7467 31.2977C14.1935 30.1978 15.8435 29.3897 17.6753 28.8694C14.1512 28.7255 11.5452 27.8202 9.88683 26.1364C8.06769 24.2961 7.16235 21.7197 7.16235 18.4114C7.16235 14.9254 8.14807 12.1798 10.1195 10.1703C12.091 8.16076 14.7224 7.15812 18.0095 7.15812C20.0275 7.15812 21.7409 7.54733 23.1539 8.30883V0.664199C21.559 0.232681 19.8456 0 18.0095 0C12.8144 0 8.32152 1.78107 5.00899 5.15706C2.72448 7.48387 0 11.6721 0 18.4114C0 25.1507 2.60603 28.9498 4.789 31.1666C6.17663 32.5711 7.86039 33.6584 9.78953 34.4622C10.5722 33.2649 11.5621 32.1988 12.7425 31.2977H12.7467Z" fill="black"/>
<path d="M20.8101 11.3292C20.1078 10.7073 19.1348 10.3984 17.8953 10.3984C15.9365 10.3984 14.4431 11.0965 13.4066 12.4968C12.3701 13.8929 11.854 15.8178 11.854 18.2715C11.854 20.7252 12.3871 22.464 13.4532 23.7163C14.5193 24.9685 16.11 25.5946 18.2295 25.5946C18.9656 25.5946 19.6382 25.565 20.2517 25.5058C20.8609 25.4466 21.3812 25.345 21.8085 25.2054V20.8437H17.8106V17.4169H23.1496V14.0917H21.9354C21.8889 12.8691 21.5124 11.9511 20.8101 11.3292Z" fill="black"/>
<path d="M41.1001 24.9146V22.6428L34.8389 10.9453V24.9146H41.1001Z" fill="black"/>
<path d="M41.1 28.4375H33.4131V28.4883H41.1V28.4375Z" fill="black"/>
<path d="M32.2451 7.75968H33.1335L29.3303 0.65656H41.9966V0.601562H23.1494V0.665021C25.1209 1.19807 26.9062 2.05265 28.4799 3.2372C30.1045 4.46407 31.3652 5.99976 32.2451 7.75968Z" fill="black"/>
<path d="M24.6343 28.2225C25.1759 28.0871 25.7174 27.9348 26.2546 27.7529V17.4219H23.1494V28.1591C23.6571 28.1591 24.1478 28.1844 24.6343 28.2225Z" fill="black"/>
<path d="M26.5339 14.0918C26.5339 11.8538 25.7428 10.1404 24.1647 8.94741C23.8475 8.70627 23.5048 8.49897 23.1494 8.30859V14.0918H26.5339Z" fill="black"/>
<path d="M33.413 20.8137C33.413 19.8068 33.1719 13.1225 33.0111 11.6249C32.8504 10.1146 32.5331 8.61271 32.2454 7.75391H30.312V28.4837H33.4172V20.8094L33.413 20.8137Z" fill="black"/>
<path d="M41.9971 17.7537H46.6042L41.9971 9.14453V17.7537Z" fill="black"/>
<path d="M54.621 17.2109L52.6496 20.9V28.4389H50.877V28.4896H54.621V17.2109Z" fill="black"/>
<path d="M46.4561 7.81437L50.7332 17.2401L54.6211 8.81701V0.65625H41.9971V7.81437H46.4561Z" fill="black"/>
<path d="M33.1338 7.75937H34.8388V10.945L41.1 22.6425V24.9143H43.7145V28.4384H41.1V28.4891H50.8768V28.4384H48.2581V20.8445L46.604 17.7562H41.9969V9.147L41.2819 7.81437H41.9969V0.65625H29.3306L33.1338 7.75937Z" fill="black"/>
<path d="M68.3911 7.79033C69.9183 7.79033 71.1748 7.91301 72.1648 8.15415V0.873349C71.949 0.843736 71.729 0.818352 71.509 0.792969L67.7734 7.79033H68.3953H68.3911Z" fill="black"/>
<path d="M66.1535 28.5181L72.1651 28.5435V20.1458C71.4586 20.3151 70.6632 20.3997 69.7748 20.3997H66.2804V28.4377H61.7791V19.0078L59.8076 22.6969V28.5477H66.1535V28.5181Z" fill="black"/>
<path d="M68.2517 17.1015C69.5843 17.1015 70.5446 16.8392 71.1369 16.3104C71.7292 15.7858 72.0253 14.9989 72.0253 13.954C72.0253 13.0021 71.7588 12.2956 71.2215 11.8344C70.6843 11.3733 69.8381 11.1406 68.6832 11.1406H66.1533V17.0973H68.2517V17.1015Z" fill="black"/>
<path d="M63.0863 2.5727C66.1408 2.5727 69.0091 1.91696 71.577 0.65625H54.6167C57.1889 1.91696 60.0487 2.5727 63.0821 2.5727H63.0863Z" fill="black"/>
<path d="M59.6381 7.8125H55.0817L54.6206 8.81514V17.2086L59.6381 7.8125Z" fill="black"/>
<path d="M61.7788 7.78906V19.0043L67.7693 7.78906H61.7788Z" fill="black"/>
<path d="M76.3319 28.5563L80.5793 28.5732H93.3387C93.3176 28.5309 93.2964 28.4802 93.2795 28.4378H91.6423V19.3633H83.7734V28.4378H79.3271V24.3257C77.9945 25.5061 76.0907 26.6356 73.4424 27.1941V28.5478H76.3361V28.5605L76.3319 28.5563Z" fill="black"/>
<path d="M81.9886 7.72843H83.7696V13.8966C83.7696 13.8966 83.7696 13.9135 83.7696 13.922C83.7696 13.9262 83.7696 13.9347 83.7696 13.9389V16.0034H91.5835V7.72843H94.0245C94.8791 6.0362 96.1017 4.56397 97.6628 3.37941C99.2746 2.15254 101.145 1.28951 103.234 0.781841V0.570312L71.5856 0.654924L71.5137 0.790302C73.2059 1.03144 76.5015 2.33446 78.3037 3.75593C80.364 5.38047 81.3794 6.65387 81.9928 7.72843H81.9886Z" fill="black"/>
<path d="M75.0166 18.5176C76.0785 17.2653 76.6115 15.7338 76.6115 13.9232C76.6115 12.7005 76.3535 11.6387 75.8373 10.7375C75.3212 9.8322 74.5174 9.11724 73.4344 8.58419C73.079 8.41073 72.6517 8.26689 72.1694 8.14844V20.1421C73.3963 19.8502 74.3482 19.3087 75.0208 18.5133L75.0166 18.5176Z" fill="black"/>
<path d="M80.3426 23.1467C82.2422 20.6125 83.249 17.4269 83.249 13.9409V13.8986C83.249 11.6522 82.8175 9.58346 81.9841 7.73047H79.3188V24.3228C79.7123 23.9293 80.0507 23.5316 80.3384 23.1467H80.3426Z" fill="black"/>
<path d="M103.23 28.3789V28.5735H103.907C103.67 28.5143 103.446 28.4508 103.23 28.3789Z" fill="black"/>
<path d="M103.607 21.9899C103.607 23.2845 103.932 24.2322 104.584 24.8329C105.235 25.4336 106.162 25.734 107.367 25.734C108.573 25.734 109.466 25.4759 110.193 24.9598C110.921 24.4437 111.285 23.7329 111.285 22.8276C111.285 22.0534 111.027 21.495 110.515 21.1481C110.003 20.8054 109.242 20.5093 108.235 20.2681L107.507 20.0989C105.679 19.642 104.258 19.1766 103.23 18.707V21.8207H103.607V21.9899Z" fill="black"/>
<path d="M107.943 7.39672C110.236 7.39672 112.042 7.93401 113.366 9.0128C114.691 10.0874 115.351 11.5934 115.351 13.5226V13.6622H111.086V13.5226C111.002 12.5707 110.676 11.8346 110.1 11.3058C109.525 10.7769 108.738 10.5147 107.731 10.5147C106.724 10.5147 105.929 10.7643 105.286 11.2635C104.643 11.7627 104.321 12.448 104.321 13.3237C104.321 14.301 104.778 14.9864 105.692 15.3798C106.606 15.7732 108.057 16.1878 110.054 16.6236C112.046 17.0636 113.527 17.7405 114.488 18.6627C115.448 19.585 115.926 20.7653 115.926 22.1995C115.926 24.2132 115.114 25.8378 113.493 27.0731C112.571 27.7754 111.492 28.2703 110.257 28.5707H121.739C122.788 26.6627 123.08 24.5051 123.08 22.1995C123.08 20.8626 122.885 19.5892 122.509 18.3962V13.5184C122.509 9.45701 120.867 5.88218 117.88 3.45384C115.253 1.3174 111.907 0.234375 107.939 0.234375C106.259 0.234375 104.69 0.42475 103.23 0.780118V8.32322C104.52 7.70132 106.09 7.39249 107.939 7.39249L107.943 7.39672Z" fill="black"/>
<path d="M93.2798 14.6813V28.5745H96.072V7.73047H94.0244C93.4025 9.16886 93.2798 13.3487 93.2798 14.6771V14.6813Z" fill="black"/>
<path d="M101.99 9.07726C100.514 10.2026 99.765 11.7891 99.748 13.8366C99.748 14.7504 99.9469 15.5796 100.349 16.3242C100.751 17.0688 101.466 17.7415 102.502 18.338C102.714 18.4607 102.963 18.5833 103.23 18.706V8.32422C102.786 8.53998 102.371 8.78958 101.99 9.07726Z" fill="black"/>
<path d="M99.0928 21.8206C99.0928 24.2363 99.7443 26.0216 101.052 27.1808C101.631 27.6969 102.363 28.0903 103.235 28.3738V21.8164H99.097L99.0928 21.8206Z" fill="black"/>
<path d="M29.1827 46.2431C29.318 46.3531 29.4492 46.4631 29.5676 46.5773C30.528 47.4995 31.006 48.6799 31.006 50.114C31.006 52.1278 30.1938 53.7523 28.5734 54.9876C26.9531 56.223 24.8505 56.8406 22.2699 56.8406C19.482 56.8406 17.4386 56.261 16.1314 55.1019C14.8283 53.9427 14.1726 52.1532 14.1726 49.7417H18.6866V49.911C18.6866 51.2055 19.0124 52.1532 19.6639 52.7539C20.3154 53.3546 21.2419 53.655 22.4476 53.655C23.6533 53.655 24.5459 53.397 25.2736 52.8808C26.0013 52.3647 26.3651 51.654 26.3651 50.7486C26.3651 49.9744 26.107 49.416 25.5951 49.0691C25.0832 48.7264 24.3217 48.4303 23.3149 48.1891L22.5872 48.0199C20.2858 47.4403 18.6189 46.8565 17.5824 46.26C16.5459 45.6635 15.831 44.9908 15.4291 44.2462C15.0272 43.5017 14.8283 42.6725 14.8283 41.7587C14.8453 39.7068 15.5941 38.1204 17.0705 36.9993C17.5697 36.6185 18.1324 36.3097 18.7501 36.0559C18.7289 36.0559 18.7078 36.0559 18.6866 36.0559C15.2768 36.0559 12.3112 35.5101 9.7855 34.4609C8.42749 36.5381 7.01025 39.7915 7.01025 42.5794V49.7375C7.01025 55.3853 9.37937 58.6809 11.3677 60.4493C14.0161 62.8057 17.6797 63.9987 22.2614 63.9987C25.5994 63.9987 29.5296 63.2711 32.0552 61.8581V46.2431H29.17H29.1827Z" fill="black"/>
<path d="M20.3703 39.1743C19.7273 39.6735 19.4058 40.3588 19.4058 41.2346C19.4058 42.2118 19.8627 42.8972 20.7765 43.2906C21.6564 43.6671 23.0483 44.069 24.9436 44.4921V39.0389C24.3978 38.6412 23.6956 38.4297 22.8198 38.4297C21.8299 38.4297 21.0176 38.6793 20.3746 39.1785L20.3703 39.1743Z" fill="black"/>
<path d="M18.7543 36.0538C19.96 35.5631 21.3772 35.3093 23.0272 35.3093C23.0695 35.3093 23.1118 35.3093 23.1541 35.3093V28.5234C23.006 28.5488 22.8622 28.5869 22.7141 28.6123C21.5168 28.7984 20.1758 28.8915 18.6951 28.8915C18.3439 28.8915 18.0097 28.8746 17.6755 28.8619C15.8437 29.3865 14.1937 30.1903 12.7469 31.2902C11.5666 32.1871 10.5766 33.2532 9.79395 34.4547C12.3196 35.5039 15.281 36.0496 18.6951 36.0496C18.7162 36.0496 18.7374 36.0496 18.7585 36.0496L18.7543 36.0538Z" fill="black"/>
<path d="M24.9391 28.4892H26.589C25.9587 28.3665 25.3114 28.2734 24.6387 28.2227C24.148 28.3453 23.653 28.4426 23.1538 28.5315V35.3173C23.7884 35.3215 24.3849 35.3723 24.9433 35.4612V28.4892H24.9391Z" fill="black"/>
<path d="M23.1494 28.1602V28.5324C23.6486 28.4436 24.1436 28.3463 24.6343 28.2236C24.1478 28.1855 23.6529 28.1644 23.1494 28.1602Z" fill="black"/>
<path d="M24.9393 35.594V35.4883C24.7447 35.5264 24.5501 35.556 24.3555 35.594H24.9393Z" fill="black"/>
<path d="M36.2939 35.5977C36.2939 35.5977 36.3151 35.6315 36.3236 35.6484H44.0782V35.5977H36.2939Z" fill="black"/>
<path d="M44.0783 48.8712V39.0859H42.7076V56.3509H38.2486V39.0859H37.3813C37.3813 39.9786 37.0344 44.0569 36.6833 46.6163C36.2729 49.6031 35.761 51.6296 34.551 55.8855C33.6796 58.9527 32.6938 60.7464 32.0635 61.8633V63.5132H49.8657V60.8776C49.5399 60.6407 49.2226 60.3995 48.918 60.1372C46.7097 58.2292 44.0783 54.7263 44.0783 48.8755V48.8712Z" fill="black"/>
<path d="M41.1 28.4883H33.4131V31.7797C34.6273 32.8669 35.6003 34.153 36.2941 35.5956H41.1V28.4883Z" fill="black"/>
<path d="M54.621 28.4883H50.877V28.5433H54.621V28.4883Z" fill="black"/>
<path d="M50.8769 28.5433V28.4883H41.1001V35.5956H44.0784V28.5433H50.8769Z" fill="black"/>
<path d="M56.0336 28.4883H54.6206V28.5433H56.0336V28.4883Z" fill="black"/>
<path d="M24.939 35.4603C24.9686 35.4645 24.994 35.4687 25.0236 35.4729C26.2081 35.236 30.2229 33.9669 31.3737 33.5819V31.7797H33.417C33.2647 31.6443 33.1293 31.5004 32.9686 31.3735C31.1706 29.914 29.0299 28.9579 26.5889 28.4883H24.939V35.4603Z" fill="black"/>
<path d="M29.1822 46.2433C28.2303 45.4903 26.8808 44.9191 25.1336 44.5384C25.0659 44.5215 25.0024 44.5088 24.939 44.4961V46.2475H29.1822V46.2433Z" fill="black"/>
<path d="M24.939 39.0413C25.0193 39.1006 25.1082 39.1513 25.1843 39.2233C25.7555 39.7478 26.0854 40.4882 26.1701 41.4401V41.5797H30.4345V41.4401C30.4345 39.5109 29.7745 38.0091 28.4503 36.9303C27.6761 36.2999 26.7285 35.86 25.6201 35.5977H24.939V39.0413Z" fill="black"/>
<path d="M24.939 35.4893V35.595H25.6201C25.4255 35.5485 25.2266 35.5104 25.0236 35.4766C24.994 35.4808 24.9686 35.485 24.939 35.4935V35.4893Z" fill="black"/>
<path d="M24.939 35.4906C24.9686 35.4863 24.994 35.4821 25.0236 35.4736C24.994 35.4694 24.9686 35.4652 24.939 35.4609V35.4906Z" fill="black"/>
<path d="M31.374 35.5977V39.0879H37.3857C37.1826 37.8737 36.8357 36.6638 36.3238 35.5977H31.374Z" fill="black"/>
<path d="M56.0338 35.5977V46.246H55.6826V48.539C55.6826 50.2735 56.0253 51.5173 56.7106 52.2703C57.396 53.0234 58.5721 53.4041 60.2389 53.4041C61.2754 53.4041 62.1385 53.218 62.8323 52.8457C63.5261 52.4734 64.0338 51.9699 64.3553 51.3354C64.6768 50.7008 64.8376 49.7954 64.8376 48.6236V35.7077H66.149V35.5977H56.0295H56.0338Z" fill="black"/>
<path d="M60.2391 56.7587C57.3877 56.7587 55.1751 56.0776 53.5971 54.7196C52.0233 53.3573 51.2364 51.4113 51.2364 48.8772V46.25H49.8657V60.8793C52.6367 62.893 56.1143 63.9211 60.2391 63.9211C62.3459 63.9211 64.3258 63.5953 66.1534 62.9777V55.0157C64.5839 56.1791 62.6124 56.763 60.2391 56.763V56.7587Z" fill="black"/>
<path d="M66.1535 28.543H59.8076V35.5911H66.1535V28.543Z" fill="black"/>
<path d="M59.8074 28.543H56.0337V35.5911H59.8074V28.543Z" fill="black"/>
<path d="M76.3322 28.5557V28.543H73.4385L76.3322 28.5557Z" fill="black"/>
<path d="M51.2362 46.246V35.7034H55.6826V46.246H56.0337V35.5977H44.0781V35.6484H48.8756V39.0879H44.0781V48.8732C44.0781 54.724 46.7095 58.227 48.9179 60.1349C49.2225 60.3972 49.544 60.6384 49.8655 60.8753V46.246H51.2362Z" fill="black"/>
<path d="M54.621 28.543H50.877V35.5911H54.621V28.543Z" fill="black"/>
<path d="M50.8724 28.543H44.0781V35.5911H50.8724V28.543Z" fill="black"/>
<path d="M56.0336 28.543H54.6206V35.5911H56.0336V28.543Z" fill="black"/>
<path d="M76.332 35.7161L80.5541 35.733C81.5906 35.733 82.5637 35.8261 83.4775 36.0165L83.2532 35.5977H76.3363V35.7161H76.332Z" fill="black"/>
<path d="M78.5533 39.0312C78.3037 39.0312 78.0541 39.0397 77.813 39.0609V52.9413C78.1091 52.9413 78.4095 52.9498 78.7141 52.971C79.0187 52.9879 79.3191 53.0006 79.6152 53.0006C80.9775 53.0006 81.9843 52.8821 82.6401 52.6494C83.2958 52.4168 83.8965 52.0275 84.4381 51.4818C84.9796 50.9361 85.4111 50.1746 85.7368 49.1973C86.0626 48.22 86.2276 47.0524 86.2276 45.7029C86.2276 44.5183 86.0753 43.486 85.7665 42.5976C85.4576 41.7134 85.0176 41.0027 84.4465 40.4739C83.8754 39.9451 83.2408 39.5685 82.5512 39.357C81.8616 39.1412 80.7828 39.0355 79.3233 39.0355H78.5533V39.0312Z" fill="black"/>
<path d="M90.4452 49.0316C90.2379 49.9327 89.9503 50.7661 89.5653 51.5191C88.7403 53.1268 87.6234 54.3325 86.2189 55.1405C84.8101 55.9485 83.0037 56.3505 80.7953 56.3505H74.3902C73.6245 57.6831 72.6346 58.8888 71.4331 59.9464C69.9058 61.2918 68.1205 62.3029 66.1533 62.9713V63.5086H80.7911C84.2517 63.5086 87.2723 62.7851 89.7726 61.351C90.2929 61.0548 90.7837 60.7206 91.2617 60.3653V50.5503L90.4452 49.0273V49.0316Z" fill="black"/>
<path d="M66.1533 31.7813H72.165V28.5407L66.1533 28.5195V31.7813Z" fill="black"/>
<path d="M80.5838 28.5716L76.332 28.5547V35.5943H83.2532L79.4923 28.5716H80.5838Z" fill="black"/>
<path d="M73.3665 28.5433L72.165 28.5391V28.5433H73.3665Z" fill="black"/>
<path d="M73.3663 28.543H69.1611V35.5953H73.4382V28.543H73.3663Z" fill="black"/>
<path d="M66.6991 54.5724C68.349 53.1171 69.1739 51.171 69.1739 48.73V35.5898H66.1533V55.0081C66.3395 54.8685 66.5256 54.7289 66.6991 54.5724Z" fill="black"/>
<path d="M76.3321 35.5947L73.3115 35.582V56.3499H74.3861C75.668 54.1246 76.3321 51.5524 76.3321 48.7306V35.5905V35.5947Z" fill="black"/>
<path d="M117.83 32.7674C115.541 34.5104 112.808 35.5638 109.694 35.9276L102.811 48.8139V56.3485H98.4198V48.7589L97.8699 47.7309C97.6499 50.3284 97.0068 52.6976 95.9323 54.7875C94.7604 57.0762 93.1866 58.9419 91.2617 60.3676V63.5066H109.969V50.6034L121.739 28.5664H121.472C120.592 30.1656 119.37 31.587 117.825 32.7631L117.83 32.7674Z" fill="black"/>
<path d="M100.895 45.1509L105.125 35.9833C104.207 35.9029 103.327 35.7802 102.494 35.5898H96.6006L100.895 45.1509Z" fill="black"/>
<path d="M96.2919 32.534C95.2893 31.6414 94.1851 30.3553 93.339 28.5742H80.5796C83.6933 28.5742 86.5785 29.1877 89.1253 30.4018C91.5833 31.5737 93.6097 33.3548 95.0947 35.597H102.494C100.04 35.0428 97.963 34.0232 96.2919 32.534Z" fill="black"/>
<path d="M107.186 28.9254C105.942 28.9254 104.855 28.8027 103.907 28.5742H103.23V35.597H102.494C103.328 35.7831 104.208 35.91 105.126 35.9904L105.244 35.7323H109.8L109.695 35.9312C112.804 35.5673 115.537 34.5139 117.83 32.7709C119.374 31.5948 120.597 30.1734 121.477 28.5742H110.257C109.322 28.8027 108.303 28.9254 107.186 28.9254Z" fill="black"/>
<path d="M96.2918 32.534C97.9629 34.019 100.04 35.0428 102.494 35.597H103.23V28.5742H93.3389C94.185 30.3553 95.2849 31.6414 96.2918 32.534Z" fill="black"/>
<path d="M89.1255 30.4018C86.5787 29.1877 83.6935 28.5742 80.5798 28.5742H79.4883L83.2493 35.597H95.0906C93.6099 33.359 91.5792 31.5737 89.1213 30.4018H89.1255Z" fill="black"/>
<path d="M90.8005 45.729C90.8005 43.7364 90.4028 41.9469 89.6117 40.3689C88.8206 38.7909 87.6318 37.6232 86.0453 36.866C85.25 36.4852 84.3912 36.2018 83.4731 36.0156L90.4451 49.0373C90.6778 48.0262 90.8005 46.9263 90.8005 45.7332V45.729Z" fill="black"/>
<path d="M96.0125 37.1509C95.7629 36.6559 95.4456 36.0467 95.1495 35.5898H91.4097L97.8697 47.7273C97.9247 47.0716 97.9586 46.4074 97.9586 45.7221C97.9586 42.6126 97.3028 39.7316 96.0083 37.1509H96.0125Z" fill="black"/>
<path d="M31.3737 35.5958V33.582L24.939 35.4604L31.3737 35.5958Z" fill="black"/>
</svg>
