<svg width="64" height="64" viewBox="0 0 64 64" fill="none" xmlns="http://www.w3.org/2000/svg">
<circle cx="32" cy="32" r="31.5" stroke="black"/>
<path d="M19.2562 24.46C19.2562 21.184 20.3542 18.574 22.5502 16.63C24.7822 14.65 27.8062 13.66 31.6222 13.66C35.4742 13.66 38.5162 14.686 40.7482 16.738C42.9802 18.79 44.0962 21.184 44.0962 23.92C44.0962 25.828 43.7002 27.484 42.9082 28.888C42.1162 30.292 41.1622 31.426 40.0462 32.29L36.5902 34.828C33.8542 36.808 32.4862 39.202 32.4862 42.01C32.4862 42.55 32.2162 42.82 31.6762 42.82C31.1362 42.82 30.8662 42.55 30.8662 42.01C30.8662 40.462 31.1542 39.076 31.7302 37.852C32.3062 36.628 33.0262 35.656 33.8902 34.936L39.4522 30.454C40.3162 29.77 41.0362 28.87 41.6122 27.754C42.1882 26.602 42.4762 25.324 42.4762 23.92C42.4762 21.616 41.5042 19.6 39.5602 17.872C37.6162 16.144 34.9702 15.28 31.6222 15.28C28.3102 15.28 25.6822 16.108 23.7382 17.764C21.8302 19.384 20.8762 21.616 20.8762 24.46C20.8762 25 20.6062 25.27 20.0662 25.27C19.5262 25.27 19.2562 25 19.2562 24.46ZM29.6782 51.838C29.2102 51.334 28.9762 50.668 28.9762 49.84C28.9762 49.012 29.2102 48.364 29.6782 47.896C30.1822 47.392 30.8482 47.14 31.6762 47.14C32.5042 47.14 33.1522 47.392 33.6202 47.896C34.1242 48.364 34.3762 49.012 34.3762 49.84C34.3762 50.668 34.1242 51.334 33.6202 51.838C33.1522 52.306 32.5042 52.54 31.6762 52.54C30.8482 52.54 30.1822 52.306 29.6782 51.838Z" fill="black"/>
</svg>
