<svg width="210" height="45" viewBox="0 0 210 45" fill="none" xmlns="http://www.w3.org/2000/svg">
<g clip-path="url(#clip0_1338_114)">
<path d="M18.9498 13.8108H14.0098V21.0708H18.8798C20.0898 21.0708 21.0398 20.7208 21.7498 20.0208C22.4598 19.3208 22.7998 18.4208 22.7998 17.3208C22.7998 16.2208 22.4798 15.3108 21.8298 14.7108C21.1798 14.1108 20.2198 13.8008 18.9498 13.8008V13.8108Z" fill="#FF8110"/>
<path d="M26.89 40.1192C25.72 38.7792 24.84 37.2992 24.24 35.7392H23.3L22.65 31.0492C22.42 29.2992 22.17 27.8992 21.92 26.8292C21.67 25.7592 20.8 25.2292 19.33 25.2292H14.18V35.7392H8.5V9.69922H20.19C23.12 9.69922 25.26 10.3692 26.61 11.6992C27.11 12.1992 27.52 12.7292 27.84 13.2992C28.36 12.7492 28.91 12.2192 29.53 11.7492C31.18 10.4992 33.09 9.61922 35.23 9.08922C34.53 7.84922 33.66 6.69922 32.59 5.64922C29.6 2.69922 25.43 1.19922 20.2 1.19922H0V44.2392H33.93C30.47 43.4392 28.24 41.6692 26.89 40.1192Z" fill="#FF8110"/>
<path d="M24.1497 22.9995V22.6695C24.1497 22.6195 24.1597 22.5695 24.1597 22.5195C23.8397 22.6395 23.5297 22.7495 23.1797 22.8495C23.5297 22.8895 23.8497 22.9395 24.1497 23.0095V22.9995Z" fill="#FF8110"/>
<path d="M20.19 9.70141H8.5V35.7314H14.18V25.2214H19.33C20.81 25.2214 21.67 25.7514 21.92 26.8214C22.17 27.8914 22.42 29.2914 22.65 31.0414L23.3 35.7314H24.24C23.66 34.2014 23.36 32.5814 23.36 30.9114C23.36 29.2414 23.61 27.6114 24.11 26.1114L24.15 23.0014C23.85 22.9314 23.53 22.8814 23.18 22.8414C23.53 22.7414 23.85 22.6314 24.16 22.5114C24.24 18.9314 25.53 15.7314 27.83 13.2914C27.51 12.7214 27.11 12.1914 26.6 11.6914C25.25 10.3614 23.11 9.69141 20.18 9.69141L20.19 9.70141ZM21.74 20.0314C21.04 20.7314 20.08 21.0814 18.87 21.0814H14V13.8214H18.94C20.22 13.8214 21.18 14.1214 21.82 14.7314C22.46 15.3414 22.79 16.2014 22.79 17.3414C22.79 18.4814 22.44 19.3414 21.74 20.0414V20.0314Z" fill="white"/>
<path d="M41.9102 20.6106C41.4902 20.3006 40.9402 20.1406 40.2502 20.1406C39.6102 20.1406 39.0502 20.3506 38.5802 20.7806C38.1102 21.2106 37.8802 21.8706 37.8802 22.7806H35.7802C35.6802 23.0006 35.6002 23.2206 35.4902 23.4306C35.6402 23.9406 35.7802 24.4706 35.8902 25.0206C37.4202 24.3906 39.4302 24.0706 41.9102 24.0606V20.6106Z" fill="white"/>
<path d="M37.0498 30.1284C37.0498 30.8684 37.2998 31.4784 37.7998 31.9784C38.2998 32.4784 38.9098 32.7184 39.6398 32.7184C40.6798 32.7184 41.4898 32.2984 42.0698 31.4484C42.3998 30.9584 42.6298 30.3684 42.7698 29.7084H41.9198V27.1484C40.3098 27.1484 39.0998 27.4284 38.2998 27.9684C37.4798 28.5184 37.0698 29.2384 37.0698 30.1284H37.0498Z" fill="white"/>
<path d="M37.0797 17.3817C37.9897 17.1417 39.0197 17.0117 40.1797 17.0117C40.7897 17.0117 41.3597 17.0517 41.9097 17.1217V9.16172H45.3997C43.7797 8.73172 42.0397 8.51172 40.1797 8.51172C38.3197 8.51172 36.7597 8.71172 35.2197 9.09172C36.4697 11.3117 37.1297 13.8117 37.1297 16.4717C37.1297 16.7817 37.0997 17.0817 37.0797 17.3817Z" fill="#FF8110"/>
<path d="M46.0502 35.7317H43.6002L43.4902 35.0817C43.4502 34.8817 43.4402 34.7017 43.4402 34.5417C43.4202 34.3817 43.4002 34.1917 43.4002 33.9817V33.2617C42.7802 34.1917 42.0402 34.9017 41.1802 35.4117C40.9602 35.5417 40.7302 35.6517 40.4902 35.7517L47.5102 44.2417H55.8502C53.3902 43.7817 51.2702 42.7917 49.5602 41.2817C48.2802 40.1517 46.8602 38.3617 46.0502 35.7417V35.7317Z" fill="white"/>
<path d="M37.9496 36.1698C35.8096 36.1698 34.2596 35.6198 33.2996 34.5298C32.3396 33.4398 31.8696 32.2298 31.8696 30.9198C31.8696 28.7798 32.6896 27.0998 34.3196 25.8798C34.7696 25.5498 35.2996 25.2598 35.8896 25.0198C35.7796 24.4698 35.6397 23.9398 35.4897 23.4298C35.5997 23.2198 35.6796 22.9998 35.7796 22.7798H32.6596C32.6796 20.9398 33.3496 19.5198 34.6696 18.5198C35.3396 18.0098 36.1497 17.6298 37.0797 17.3798C37.0997 17.0798 37.1297 16.7798 37.1297 16.4698C37.1297 13.8098 36.4697 11.3098 35.2197 9.08984C33.0796 9.61984 31.1696 10.4998 29.5196 11.7498C28.8996 12.2198 28.3496 12.7498 27.8296 13.2998C28.3596 14.2598 28.6196 15.3098 28.6196 16.4698C28.6196 18.0798 28.1696 19.4098 27.2796 20.4798C26.5596 21.3398 25.4996 22.0198 24.1496 22.5198C24.1496 22.5698 24.1496 22.6198 24.1396 22.6698V22.9998C25.1096 23.2098 25.8596 23.5798 26.3796 24.1098C27.0496 24.7998 27.4996 26.0098 27.7196 27.7398C27.9396 29.4698 28.1696 31.0998 28.4096 32.6298C28.6496 34.1598 28.9997 35.1898 29.4496 35.7298H24.2296C24.8196 37.2998 25.7096 38.7698 26.8796 40.1098C28.2296 41.6598 30.4596 43.4298 33.9196 44.2298H47.5096L40.4897 35.7398C39.7597 36.0298 38.9096 36.1698 37.9396 36.1698H37.9496Z" fill="white"/>
<path d="M27.2899 20.4808C28.1799 19.4108 28.6299 18.0808 28.6299 16.4708C28.6299 15.3108 28.3599 14.2508 27.8399 13.3008C25.5399 15.7508 24.2499 18.9408 24.1699 22.5208C25.5199 22.0208 26.5799 21.3408 27.2999 20.4808H27.2899Z" fill="#FF8110"/>
<path d="M23.6699 30.6017C23.6699 32.2717 23.8999 34.0017 24.2399 35.7417H29.4599C29.0099 35.2017 28.6699 34.1717 28.4199 32.6417C28.1699 31.1117 27.9399 29.4817 27.7299 27.7517C27.5199 26.0217 27.0699 24.8117 26.3899 24.1217C25.8799 23.5917 25.1299 23.2217 24.1499 23.0117L24.5399 26.1217C24.0499 27.6217 23.6799 28.9117 23.6799 30.6017H23.6699Z" fill="#FF8110"/>
<path d="M45.4004 29.6986H42.7504C42.6104 30.3686 42.3904 30.9586 42.0504 31.4386C41.4804 32.2786 40.6704 32.7086 39.6203 32.7086C38.8903 32.7086 38.2803 32.4586 37.7803 31.9686C37.2803 31.4786 37.0303 30.8586 37.0303 30.1186C37.0303 29.2286 37.4403 28.5086 38.2603 27.9586C39.0703 27.4186 40.2804 27.1486 41.8804 27.1386V24.0586C39.4004 24.0686 37.4004 24.3886 35.8604 25.0186C35.9704 25.5486 36.0604 26.1086 36.1304 26.6886C36.3304 28.3086 36.5503 29.8586 36.7803 31.2786C36.7803 31.2786 36.7803 31.2786 36.7803 31.2886L40.4604 35.7386C40.7003 35.6386 40.9404 35.5286 41.1504 35.3986C42.0104 34.8886 42.7503 34.1686 43.3703 33.2486V33.9686C43.3703 34.1786 43.3804 34.3686 43.4104 34.5286C43.4104 34.6886 43.4303 34.8786 43.4604 35.0686L43.5704 35.7186H46.0204C45.6304 34.4486 45.3703 32.9886 45.3703 31.2886V29.6886L45.4004 29.6986Z" fill="#FF8110"/>
<path d="M37.0795 17.3817C36.9695 19.3017 36.5295 21.1217 35.7695 22.7817H37.8695C37.8695 21.8817 38.0995 21.2117 38.5695 20.7817C39.0395 20.3517 39.5995 20.1417 40.2395 20.1417C40.9295 20.1417 41.4795 20.3017 41.8995 20.6117V17.1217C41.3495 17.0517 40.7795 17.0117 40.1695 17.0117C39.0095 17.0117 37.9795 17.1317 37.0695 17.3817H37.0795Z" fill="#FF8110"/>
<path d="M34.6702 18.5189C33.3502 19.5189 32.6802 20.9389 32.6602 22.7789H35.7802C36.5402 21.1189 36.9802 19.3089 37.0902 17.3789C36.1502 17.6289 35.3502 18.0089 34.6802 18.5189H34.6702Z" fill="#FF8110"/>
<path d="M36.8199 31.2795C36.5899 29.8495 36.3699 28.3095 36.1699 26.6895C36.0999 26.1095 36.0099 25.5595 35.8999 25.0195C35.3099 25.2595 34.7799 25.5495 34.3299 25.8795C32.6999 27.0895 31.8799 28.7695 31.8799 30.9195C31.8799 32.2295 32.3599 33.4395 33.3099 34.5295C34.2599 35.6195 35.8099 36.1695 37.9599 36.1695C38.9299 36.1695 39.7799 36.0295 40.5099 35.7395L36.8299 31.2895C36.8299 31.2895 36.8299 31.2895 36.8299 31.2795H36.8199Z" fill="#FF8110"/>
<path d="M53.9104 14.8313V14.0913L58.0404 12.5813V3.53125L45.4004 8.15125V9.16125C47.3304 9.67125 49.0904 10.4613 50.6604 11.5613C51.6004 12.2213 52.8304 13.2812 53.9104 14.8413V14.8313Z" fill="#FF8110"/>
<path d="M67.7001 0L64.3301 1.23H67.7001V0Z" fill="#FF8110"/>
<path d="M58.2204 41.3503V36.0003C57.8204 35.9603 57.4504 35.9003 57.1104 35.8203L58.2204 41.3503Z" fill="#FF8110"/>
<path d="M58.2196 44.2383H55.8496C56.9196 44.4383 58.0596 44.5583 59.2696 44.5583C60.0196 44.5583 60.8796 44.5083 61.9096 44.3983C62.2496 44.3583 62.6196 44.2983 62.9696 44.2383H58.2096H58.2196Z" fill="#FF8110"/>
<path d="M42.0302 24.0594H42.9302V23.3394C42.9302 22.2894 42.7102 21.4894 42.2702 20.9494C42.1702 20.8194 42.0402 20.7094 41.9102 20.6094V24.0594C41.9102 24.0594 41.9902 24.0594 42.0302 24.0594Z" fill="#FF8110"/>
<path d="M58.2202 41.3519L57.1102 35.8219C56.3302 35.6319 55.6802 35.3419 55.2002 34.9219C54.3402 34.1619 53.9102 32.9619 53.9102 31.3219V21.2119H50.4102V17.6819H53.9102V14.8519C52.8302 13.2919 51.6102 12.2319 50.6602 11.5719C49.0902 10.4719 47.3302 9.68187 45.4002 9.17188H41.9102V17.1319C43.4302 17.3319 44.7302 17.7919 45.7902 18.5319C47.2302 19.5419 47.9502 21.2419 47.9502 23.6519L48.0002 30.3119C48.0002 32.5219 48.1402 34.3419 48.4202 35.7419H46.0502C46.8602 38.3619 48.2802 40.1519 49.5602 41.2819C51.2702 42.7919 53.3802 43.7819 55.8502 44.2419H58.2202V41.3519Z" fill="#FF8110"/>
<path d="M42.7602 29.6989C42.8602 29.2089 42.9202 28.6889 42.9202 28.0989V27.1689L41.9902 27.1289C41.9902 27.1289 41.9402 27.1289 41.9102 27.1289V29.6889H42.7602V29.6989Z" fill="#FF8110"/>
<path d="M42.2604 20.9489C42.7004 21.4889 42.9204 22.2889 42.9204 23.3389V24.0589H42.0204C42.0204 24.0589 41.9404 24.0589 41.9004 24.0589V27.1389C41.9004 27.1389 41.9504 27.1389 41.9804 27.1389L42.9104 27.1789V28.1089C42.9104 28.6889 42.8504 29.2189 42.7504 29.7089H45.4004V31.3089C45.4004 33.0089 45.6604 34.4689 46.0504 35.7389H48.4204C48.1404 34.3289 48.0004 32.5189 48.0004 30.3089L47.9504 23.6489C47.9504 21.2489 47.2304 19.5389 45.7904 18.5289C44.7304 17.7889 43.4304 17.3189 41.9104 17.1289V20.6189C42.0404 20.7189 42.1604 20.8289 42.2704 20.9589L42.2604 20.9489Z" fill="white"/>
<path d="M53.9102 14.8298C55.3002 16.8398 56.4502 19.6998 56.4502 23.6398L56.5002 30.2298C56.5002 32.4598 56.6602 33.5798 56.7602 34.0598L57.1102 35.8098C57.4502 35.8898 57.8202 35.9498 58.2202 35.9898V22.8998H58.0402V12.5898L53.9102 14.0998V14.8398V14.8298Z" fill="white"/>
<path d="M56.5099 30.2281L56.4599 23.6381C56.4599 19.6981 55.3099 16.8481 53.9199 14.8281V17.6581H50.4199V21.1881H53.9199V31.2981C53.9199 32.9381 54.3499 34.1381 55.2099 34.8981C55.6899 35.3181 56.3399 35.6181 57.1199 35.7981L56.7699 34.0481C56.6699 33.5681 56.5099 32.4381 56.5099 30.2181V30.2281Z" fill="white"/>
<path d="M65.5397 43.72C64.6597 43.95 63.7997 44.11 62.9697 44.24H68.2897V43L65.5397 43.72Z" fill="#FF8110"/>
<path d="M58.04 1.23047V3.53047L64.33 1.23047H58.04Z" fill="#FF8110"/>
<path d="M80.7302 1.23047H67.7002V8.98047H80.7302V1.23047Z" fill="#FF8110"/>
<path d="M58.7997 44.2416L58.2197 41.3516V44.2416H58.7997Z" fill="#FF8110"/>
<path d="M58.22 35.9919C58.55 36.0219 58.9 36.0519 59.27 36.0519C59.72 36.0519 60.3 36.0119 61.03 35.9419C61.76 35.8719 62.55 35.7119 63.4 35.4919V31.9919L62.89 32.0419C62.74 32.0619 62.6 32.0819 62.47 32.0819L62.08 32.1019H61.64C60.75 32.1019 60.12 31.9519 59.75 31.6519C59.38 31.3519 59.2 30.6219 59.2 29.4419V21.2019H63.52V17.6719H59.2V12.1719L58.04 12.5919L58.22 36.0019V35.9919Z" fill="#FF8110"/>
<path d="M68.2697 19.3912C68.2497 18.9612 68.2297 18.5012 68.1997 18.0112L68.1697 17.5312H66.7197V35.7413H68.2897V20.1812C68.2897 20.0112 68.2897 19.7512 68.2697 19.3912Z" fill="#FF8110"/>
<path d="M66.5498 9.73828V14.3883H67.9798L67.6998 9.73828H66.5498Z" fill="#FF8110"/>
<path d="M96.0396 10.8891C93.6796 9.32906 90.9296 8.53906 87.8596 8.53906C86.5096 8.53906 85.2196 8.68906 83.9796 8.97906H80.7396V17.4791H81.8196L81.9596 20.1991C82.5796 19.1291 83.3896 18.3391 84.3896 17.8191C85.3896 17.2991 86.5496 17.0391 87.8596 17.0391C89.2396 17.0391 90.4096 17.3491 91.3596 17.9791C92.3096 18.6091 92.9696 19.3691 93.3496 20.2691C93.7296 21.1691 93.9096 22.8891 93.9096 25.4191V35.7191H88.4796V23.9791C88.4796 23.0191 88.2196 22.2591 87.6896 21.7091C87.1596 21.1591 86.4796 20.8791 85.6296 20.8791C84.5296 20.8791 83.6796 21.2391 83.0696 21.9491C82.4596 22.6591 82.1596 23.6591 82.1596 24.9191V35.7091H80.5596V44.2091H100.36V15.3691C99.3096 13.6091 97.8496 12.0891 96.0396 10.8891Z" fill="#FF8110"/>
<path d="M76.7904 35.7305V20.1705C76.7904 19.9405 76.7904 19.5705 76.7604 19.0805C76.7304 18.5905 76.7204 18.0505 76.6804 17.4805H80.7204V8.98047H67.6904V9.16047H72.0104V9.74047H72.2104V14.4005H72.0104V17.5305H72.0304V35.7405H71.8904V42.0705L68.2804 43.0105V44.2505H80.5404V35.7505H76.7804L76.7904 35.7305Z" fill="#FF8110"/>
<path d="M68.29 43.0005L71.9 42.0605V35.7305H68.29V43.0005Z" fill="#FF8110"/>
<path d="M72.0302 9.16016H67.7002V9.74016H72.0302V9.16016Z" fill="#FF8110"/>
<path d="M68.1705 17.5206H72.0305V14.3906H67.9805L68.1705 17.5206Z" fill="#FF8110"/>
<path d="M80.5498 22.9003V35.7403H82.1498V24.9503C82.1498 23.6803 82.4498 22.6903 83.0598 21.9803C83.6698 21.2703 84.5198 20.9103 85.6198 20.9103C86.4598 20.9103 87.1498 21.1903 87.6798 21.7403C88.2098 22.2903 88.4698 23.0503 88.4698 24.0103V35.7503H93.8998V25.4503C93.8998 22.9203 93.7098 21.2003 93.3398 20.3003C92.9698 19.4003 92.2998 18.6303 91.3498 18.0103C90.3998 17.3903 89.2298 17.0703 87.8498 17.0703C86.4698 17.0703 85.3798 17.3303 84.3798 17.8503C83.3798 18.3703 82.5698 19.1703 81.9498 20.2303L81.8098 17.5103H80.7298V22.9203H80.5498V22.9003Z" fill="white"/>
<path d="M76.7702 19.0883C76.7902 19.5783 76.8002 19.9483 76.8002 20.1783V35.7383H80.5602V22.8983H80.7402V17.4883H76.7002C76.7402 18.0583 76.7602 18.5983 76.7802 19.0883H76.7702Z" fill="white"/>
<path d="M114.45 20.3219H120.42C121.38 17.4419 122.88 15.3419 124.22 13.9219H114.44V20.3219H114.45Z" fill="#FF8110"/>
<path d="M119.51 24.6405H114.44V35.7305H108.85V9.74047H125.64V12.5905C127.57 10.9805 130.35 9.43047 134.14 8.86047V1.23047H100.35V15.3705C100.67 15.9005 100.95 16.4505 101.18 17.0205C102.03 19.0705 102.39 21.5805 102.39 25.4305V44.2305H122.94V38.0605C121.11 35.6105 119.4 31.9505 119.4 26.7905C119.4 26.0405 119.44 25.3205 119.51 24.6305V24.6405Z" fill="#FF8110"/>
<path d="M101.19 17.0211C100.95 16.4511 100.67 15.9011 100.36 15.3711V44.2411H102.41V25.4411C102.41 21.5911 102.05 19.0711 101.2 17.0311L101.19 17.0211Z" fill="white"/>
<path d="M108.86 9.73828V35.7383H114.45V24.6483H119.52C119.68 23.0483 120 21.6083 120.43 20.3283H114.46V13.9283H124.24C124.24 13.9283 124.24 13.9283 124.24 13.9183C124.65 13.4883 125.12 13.0383 125.65 12.5983V9.74828H108.86V9.73828Z" fill="white"/>
<path d="M137.32 17.1194C139.22 17.1194 140.85 17.4894 142.22 18.2194C142.22 18.1494 142.22 18.0894 142.21 18.0094L141.66 9.05938C140.35 8.77938 138.91 8.60938 137.32 8.60938C136.19 8.60938 135.14 8.69938 134.15 8.84938V17.5294C135.11 17.2594 136.16 17.1194 137.32 17.1194Z" fill="#FF8110"/>
<path d="M134.38 31.2897C135.05 32.2197 136.05 32.6797 137.39 32.6797C138.73 32.6797 139.76 32.1797 140.38 31.1697C141 30.1597 141.31 28.5997 141.31 26.4897C141.31 24.5097 140.98 23.0497 140.32 22.0997C139.66 21.1497 138.66 20.6797 137.32 20.6797C135.98 20.6797 134.94 21.1997 134.31 22.2397C133.73 23.2197 133.43 24.6497 133.39 26.4897V27.1297C133.42 28.9997 133.75 30.3897 134.38 31.2697V31.2897Z" fill="#FF8110"/>
<path d="M142.29 35.1584C140.86 35.9684 139.16 36.3884 137.19 36.3884C134.37 36.3884 132.11 35.5184 130.43 33.7784C130.24 33.5784 130.06 33.3684 129.88 33.1484H122.94V38.0784C123.4 38.6884 123.86 39.2284 124.31 39.6884C127.6 43.0984 132.05 44.8984 137.18 44.8984C139.1 44.8984 140.81 44.6484 142.34 44.2484H142.29V35.1684V35.1584Z" fill="#FF8110"/>
<path d="M129.89 33.1494C128.57 31.4894 127.91 29.3794 127.91 26.8094C127.91 23.8694 128.74 21.5194 130.41 19.7594C131.42 18.6894 132.67 17.9494 134.15 17.5394V8.85938C130.35 9.42937 127.58 10.9794 125.65 12.5894V13.9194H124.23C122.89 15.3394 121.39 17.4394 120.43 20.3194H124.9V24.6394H119.53C119.46 25.3294 119.42 26.0494 119.42 26.7994C119.42 31.9594 121.13 35.6194 122.96 38.0694V33.1394H129.9L129.89 33.1494Z" fill="white"/>
<path d="M133.39 27.1517V26.5117C133.39 26.6217 133.38 26.7317 133.38 26.8417C133.38 26.9517 133.39 27.0417 133.39 27.1517Z" fill="black"/>
<path d="M124.89 24.6403V20.3203H120.42C119.99 21.6003 119.67 23.0403 119.51 24.6403H124.88H124.89Z" fill="#FF8110"/>
<path d="M124.22 13.9198H125.64V12.5898C125.11 13.0298 124.64 13.4798 124.23 13.9098C124.23 13.9098 124.23 13.9098 124.23 13.9198H124.22Z" fill="#FF8110"/>
<path d="M134.15 17.5311V22.4211H133.39V26.5011C133.42 24.6611 133.72 23.2311 134.31 22.2511C134.93 21.2111 135.93 20.6911 137.32 20.6911C138.71 20.6911 139.65 21.1611 140.32 22.1111C140.99 23.0611 141.31 24.5211 141.31 26.5011C141.31 28.6111 141 30.1711 140.38 31.1811C139.76 32.1911 138.76 32.6911 137.39 32.6911C136.02 32.6911 135.05 32.2311 134.38 31.3011C133.75 30.4211 133.43 29.0311 133.39 27.1611V33.1611H129.89C130.06 33.3811 130.24 33.5911 130.44 33.7911C132.12 35.5311 134.37 36.4011 137.2 36.4011C139.17 36.4011 140.87 35.9811 142.3 35.1711V20.1911C142.3 20.0211 142.3 19.7611 142.28 19.4011C142.27 19.0411 142.25 18.6411 142.22 18.2211C140.85 17.4911 139.22 17.1211 137.32 17.1211C136.16 17.1211 135.11 17.2611 134.15 17.5311Z" fill="white"/>
<path d="M131.75 19.9312H134.15V17.5312C132.67 17.9512 131.42 18.6912 130.41 19.7512C128.75 21.5112 127.91 23.8612 127.91 26.8012C127.91 29.3712 128.57 31.4812 129.89 33.1412H131.75V19.9212V19.9312Z" fill="#FF8110"/>
<path d="M153.04 17.4908H155.81L155.95 20.2108C156.57 19.1408 157.38 18.3508 158.38 17.8308C159.38 17.3108 160.54 17.0508 161.85 17.0508C161.87 17.0508 161.89 17.0508 161.91 17.0508V9.16078H165.41V8.94078C164.28 8.68078 163.09 8.55078 161.86 8.55078C160.51 8.55078 159.22 8.70078 157.98 8.99078H141.66V9.07078C145.78 9.95078 148.57 11.9908 150.31 13.7708C151.22 14.7008 152.2 15.9408 153.05 17.5008L153.04 17.4908Z" fill="#FF8110"/>
<path d="M166.06 35.7284H162.47V29.6984H161.91V22.0284C161.84 21.9284 161.77 21.8184 161.68 21.7284C161.15 21.1784 160.47 20.8984 159.62 20.8984C158.52 20.8984 157.67 21.2584 157.06 21.9684C156.45 22.6784 156.15 23.6784 156.15 24.9384V35.7284H153.1C152.21 37.4084 151.17 38.7184 150.2 39.7084C148.56 41.3784 146 43.2684 142.34 44.2384H175.85C173.39 43.7784 171.27 42.7884 169.56 41.2784C168.28 40.1484 166.86 38.3584 166.05 35.7384L166.06 35.7284Z" fill="#FF8110"/>
<path d="M153.11 35.7308H150.8V20.1708C150.8 19.9408 150.8 19.5708 150.77 19.0808C150.74 18.5908 150.73 18.0508 150.69 17.4808H153.03C152.18 15.9208 151.2 14.6908 150.29 13.7508C148.55 11.9708 145.76 9.93078 141.65 9.05078L142.2 18.0008C142.2 18.0708 142.2 18.1308 142.21 18.2108C142.95 18.6008 143.62 19.0908 144.21 19.7008C145.89 21.4208 146.73 23.7408 146.73 26.6608C146.73 29.5808 145.87 31.9908 144.14 33.7408C143.59 34.3008 142.96 34.7708 142.29 35.1508V44.2308H142.34C146 43.2608 148.56 41.3708 150.2 39.7008C151.17 38.7108 152.21 37.4008 153.1 35.7208L153.11 35.7308Z" fill="white"/>
<path d="M142.29 20.1788V35.1588C142.97 34.7788 143.59 34.3088 144.14 33.7488C145.87 31.9888 146.73 29.6288 146.73 26.6688C146.73 23.7088 145.89 21.4287 144.21 19.7087C143.62 19.1087 142.95 18.6087 142.21 18.2188C142.23 18.6287 142.26 19.0288 142.27 19.3988C142.28 19.7488 142.29 20.0188 142.29 20.1888V20.1788Z" fill="#FF8110"/>
<path d="M165.41 29.6992H162.47V35.7292H166.06C165.67 34.4592 165.41 32.9992 165.41 31.2992V29.6992Z" fill="white"/>
<path d="M158.38 17.8286C157.38 18.3486 156.57 19.1486 155.95 20.2086L155.81 17.4886H153.04C154.29 19.7886 155.25 22.7986 155.25 26.6686C155.25 30.5386 154.33 33.4386 153.12 35.7386H156.17V24.9486C156.17 23.6786 156.47 22.6886 157.08 21.9786C157.69 21.2686 158.54 20.9086 159.64 20.9086C160.48 20.9086 161.17 21.1886 161.7 21.7386C161.79 21.8286 161.86 21.9386 161.93 22.0386V17.0586C161.93 17.0586 161.89 17.0586 161.87 17.0586C160.56 17.0586 159.4 17.3186 158.4 17.8386L158.38 17.8286Z" fill="white"/>
<path d="M153.04 17.4883H150.7C150.74 18.0583 150.76 18.5983 150.78 19.0883C150.8 19.5783 150.81 19.9483 150.81 20.1783V35.7383H153.12C154.34 33.4383 155.25 30.4583 155.25 26.6683C155.25 22.8783 154.29 19.7883 153.04 17.4883Z" fill="#FF8110"/>
<path d="M178.05 35.9781C177.42 35.9081 176.89 35.7681 176.41 35.5781V44.2281H175.86C176.93 44.4281 178.07 44.5481 179.28 44.5481C180.03 44.5481 180.89 44.4981 181.92 44.3881C183.07 44.2681 184.29 44.0381 185.55 43.7081L186.1 43.5681C184.79 43.0581 183.56 42.3981 182.45 41.5681C180.45 40.0881 178.98 38.1681 178.05 35.9781Z" fill="#FF8110"/>
<path d="M173.91 14.68V14.09L179.2 12.16V15.87C180.19 14.22 181.55 12.77 183.27 11.6C184.95 10.46 186.85 9.65 188.94 9.16V0L165.42 8.15V8.94C167.09 9.32 168.64 9.97 170.05 10.9C171.61 11.93 172.92 13.22 173.92 14.69L173.91 14.68Z" fill="#FF8110"/>
<path d="M161.91 22.0312V29.7013H162.47V23.9912C162.47 23.1912 162.28 22.5412 161.91 22.0312Z" fill="#FF8110"/>
<path d="M176.41 35.5914C175.95 35.4114 175.53 35.2014 175.21 34.9114C174.35 34.1514 173.92 32.9514 173.92 31.3114V21.2014H170.42V17.6714H173.92V14.6914C172.92 13.2214 171.61 11.9314 170.05 10.9014C168.64 9.97141 167.09 9.32141 165.42 8.94141V9.16141H161.92V17.0514C163.28 17.0514 164.43 17.3714 165.36 17.9914C166.31 18.6214 166.97 19.3814 167.35 20.2814C167.73 21.1814 167.91 22.9014 167.91 25.4314V35.7314H166.07C166.88 38.3514 168.3 40.1414 169.58 41.2714C171.29 42.7814 173.4 43.7714 175.87 44.2314H176.42V35.5814L176.41 35.5914Z" fill="#FF8110"/>
<path d="M162.47 23.9908V29.7008H165.41V31.3008C165.41 33.0008 165.67 34.4608 166.06 35.7308H167.9V25.4308C167.9 22.9008 167.71 21.1808 167.34 20.2808C166.97 19.3808 166.3 18.6108 165.35 17.9908C164.41 17.3708 163.27 17.0608 161.91 17.0508V22.0308C162.28 22.5508 162.47 23.1908 162.47 23.9908Z" fill="white"/>
<path d="M173.91 14.1019V14.6919C174.41 15.4319 174.85 16.2119 175.19 17.0319C176.04 19.0819 176.4 21.5919 176.4 25.4419V35.5919C176.88 35.7719 177.41 35.9219 178.04 35.9919C177.34 34.3319 176.94 32.5219 176.92 30.5919L176.81 21.9819H177.35C177.48 19.7519 178.12 17.6919 179.2 15.8819V12.1719L173.91 14.1019Z" fill="white"/>
<path d="M175.19 17.0197C174.85 16.1997 174.42 15.4197 173.91 14.6797V17.6597H170.41V21.1897H173.91V31.2997C173.91 32.9397 174.34 34.1397 175.2 34.8997C175.52 35.1897 175.94 35.3997 176.4 35.5797V25.4297C176.4 21.5797 176.04 19.0597 175.19 17.0197Z" fill="white"/>
<path d="M209.34 26.2811L209.2 22.1911C209.05 17.9611 207.16 14.2611 203.87 11.7711C201.11 9.68109 197.72 8.62109 193.8 8.62109C192.08 8.62109 190.47 8.81109 188.95 9.16109H192.04V17.2311C192.6 17.1611 193.18 17.1211 193.8 17.1211C195.84 17.1211 197.49 17.5911 198.74 18.5411C199.99 19.4911 200.65 20.8011 200.71 22.4811H195.84C195.8 21.8111 195.58 21.2811 195.17 20.9011C194.76 20.5211 194.12 20.3211 193.25 20.3211C192.79 20.3211 192.39 20.3911 192.03 20.5211V23.6811C192.83 23.9511 194.13 24.3311 195.95 24.8011C197.87 25.3011 199.25 25.9711 200.09 26.7911C200.93 27.6111 201.35 28.6811 201.35 30.0111C201.35 31.7911 200.6 33.2811 199.09 34.4811C197.58 35.6811 195.55 36.2811 192.98 36.2811C192.6 36.2811 192.26 36.2411 191.9 36.2211V42.0711L186.08 43.5811C188.15 44.3811 190.45 44.7911 192.97 44.7911C197.5 44.7911 201.34 43.5611 204.38 41.1311C207.9 38.3211 209.84 34.3711 209.84 30.0111C209.84 28.7211 209.67 27.4711 209.33 26.2811H209.34Z" fill="#FF8110"/>
<path d="M195.5 32.3491C196.02 31.9491 196.27 31.4291 196.27 30.7891C196.27 30.3691 196.11 29.9991 195.8 29.6691C195.49 29.3391 194.76 29.0291 193.64 28.7091L192.04 28.2891V29.6891H191.92V32.6591C192.35 32.8491 192.86 32.9491 193.47 32.9491C194.31 32.9491 194.99 32.7491 195.51 32.3391L195.5 32.3491Z" fill="#FF8110"/>
<path d="M191.91 36.2202C190.14 36.0802 188.66 35.6002 187.52 34.7502C186.15 33.7302 185.45 32.3102 185.43 30.4802H190.44C190.48 31.2402 190.75 31.8502 191.27 32.2902C191.45 32.4502 191.67 32.5702 191.91 32.6702V29.7002H192.03V28.3002L190.65 27.9302C188.88 27.4302 187.64 26.7702 186.91 25.9702C186.18 25.1702 185.83 24.1202 185.83 22.8102C185.83 21.0302 186.57 19.6302 188.05 18.6302C189.14 17.8902 190.47 17.4202 192.03 17.2302V9.16016H188.94C186.86 9.65016 184.96 10.4502 183.27 11.6002C181.55 12.7702 180.19 14.2202 179.2 15.8702V17.6602H183.52V21.1902H179.2V29.4302C179.2 30.6002 179.38 31.3402 179.75 31.6402C180.12 31.9402 180.75 32.0902 181.64 32.0902H182.08L182.47 32.0702C182.6 32.0702 182.74 32.0602 182.89 32.0302L183.4 31.9802V35.4802C182.54 35.7002 181.75 35.8502 181.03 35.9302C180.31 36.0102 179.72 36.0402 179.27 36.0402C178.82 36.0402 178.43 36.0202 178.04 35.9702C178.97 38.1602 180.44 40.0802 182.44 41.5602C183.55 42.3902 184.77 43.0502 186.09 43.5602L191.91 42.0502V36.2002V36.2202Z" fill="white"/>
<path d="M190.72 22.1317C190.72 22.8617 191.11 23.3617 191.9 23.6317C191.94 23.6417 192 23.6617 192.04 23.6717V20.5117C191.82 20.5917 191.62 20.6817 191.44 20.8017C190.97 21.1317 190.73 21.5717 190.73 22.1217L190.72 22.1317Z" fill="white"/>
<path d="M176.81 21.9689C176.77 25.5289 176.92 30.5789 176.92 30.5789C176.94 32.5089 177.34 34.3189 178.04 35.9789C178.42 36.0189 178.83 36.0489 179.27 36.0489C179.71 36.0489 180.3 36.0089 181.03 35.9389C181.76 35.8689 182.55 35.7089 183.4 35.4889V31.9889L182.89 32.0389C182.74 32.0589 182.6 32.0789 182.47 32.0789L182.08 32.0989H181.64C180.75 32.0989 180.12 31.9489 179.75 31.6489C179.38 31.3489 179.2 30.6189 179.2 29.4389V21.1989H183.52V17.6689H179.2V15.8789C178.12 16.8789 176.85 18.6789 176.81 21.9789V21.9689Z" fill="#FF8110"/>
<path d="M193.64 28.7214C194.76 29.0414 195.49 29.3614 195.8 29.6814C196.11 30.0014 196.27 30.3714 196.27 30.8014C196.27 31.4314 196.01 31.9514 195.5 32.3614C194.99 32.7714 194.3 32.9714 193.46 32.9714C192.85 32.9714 192.34 32.8714 191.91 32.6814V36.2314C192.26 36.2614 192.61 36.2914 192.99 36.2914C195.56 36.2914 197.59 35.6914 199.1 34.4914C200.61 33.2914 201.36 31.8014 201.36 30.0214C201.36 28.7014 200.94 27.6214 200.1 26.8014C199.26 25.9814 197.88 25.3214 195.96 24.8114C194.13 24.3314 192.84 23.9614 192.04 23.6914V28.3114L193.64 28.7314V28.7214Z" fill="white"/>
<path d="M193.25 20.3211C194.12 20.3211 194.76 20.5111 195.17 20.9011C195.58 21.2911 195.8 21.8111 195.84 22.4811H200.71C200.65 20.8011 200 19.4911 198.74 18.5411C197.48 17.5911 195.84 17.1211 193.8 17.1211C193.18 17.1211 192.6 17.1611 192.04 17.2311V20.5211C192.4 20.3911 192.8 20.3211 193.26 20.3211H193.25Z" fill="white"/>
<path d="M185.83 22.8083C185.83 24.1083 186.19 25.1583 186.91 25.9683C187.63 26.7783 188.88 27.4283 190.65 27.9283L192.03 28.2983V23.6783C192.03 23.6783 191.93 23.6483 191.89 23.6383C191.1 23.3583 190.71 22.8583 190.71 22.1383C190.71 21.5883 190.95 21.1483 191.42 20.8183C191.6 20.6983 191.8 20.5983 192.02 20.5283V17.2383C190.46 17.4383 189.13 17.8983 188.04 18.6383C186.56 19.6483 185.82 21.0383 185.82 22.8183L185.83 22.8083Z" fill="#FF8110"/>
<path d="M191.27 32.2905C190.75 31.8405 190.47 31.2405 190.44 30.4805H185.43C185.45 32.3105 186.15 33.7305 187.52 34.7505C188.66 35.6005 190.14 36.0705 191.91 36.2205V32.6705C191.67 32.5705 191.46 32.4505 191.27 32.2905Z" fill="#FF8110"/>
</g>
<defs>
<clipPath id="clip0_1338_114">
<rect width="209.86" height="44.89" fill="white"/>
</clipPath>
</defs>
</svg>
